<svg width="132" height="48" viewBox="0 0 132 48" fill="none" xmlns="http://www.w3.org/2000/svg">
<rect width="132" height="48" rx="4" fill="#FD665E"/>
<path d="M16.8934 26.2246C16.9686 28.043 18.4588 29.1641 20.7283 29.1641C23.1141 29.1641 24.618 27.9883 24.618 26.1152C24.618 24.6455 23.7703 23.8184 21.7674 23.3604L20.6326 23.1006C19.4227 22.8135 18.9236 22.4307 18.9236 21.7744C18.9236 20.9541 19.6756 20.4072 20.7898 20.4072C21.9178 20.4072 22.6902 20.9609 22.7723 21.8838H24.4539C24.4129 20.1475 22.9773 18.9717 20.8035 18.9717C18.657 18.9717 17.1326 20.1543 17.1326 21.9043C17.1326 23.3125 17.9939 24.1875 19.8123 24.6045L21.0906 24.9053C22.3348 25.1992 22.8406 25.6094 22.8406 26.3203C22.8406 27.1406 22.0135 27.7285 20.824 27.7285C19.6209 27.7285 18.7117 27.1338 18.6023 26.2246H16.8934ZM29.2287 29.1094C31.4435 29.1094 32.8312 27.6465 32.8312 25.2607C32.8312 22.8955 31.4298 21.4258 29.2287 21.4258C27.0412 21.4258 25.633 22.9023 25.633 25.2607C25.633 27.6465 27.0275 29.1094 29.2287 29.1094ZM29.2287 27.749C28.0666 27.749 27.3625 26.833 27.3625 25.2676C27.3625 23.709 28.0666 22.7861 29.2287 22.7861C30.3976 22.7861 31.1017 23.7021 31.1017 25.2676C31.1017 26.833 30.4045 27.749 29.2287 27.749ZM35.2613 22.8477L36.2183 19.1357H34.5982L33.8394 22.8477H35.2613ZM37.288 29H38.9901V24.666C38.9901 23.6133 39.5917 22.9639 40.5897 22.9639C40.8837 22.9639 41.1503 23.0049 41.2938 23.0596V21.5146C41.1639 21.4736 40.9725 21.4463 40.747 21.4463C39.8651 21.4463 39.1952 21.9521 38.9559 22.8271H38.9218V21.5283H37.288V29ZM45.3577 29.1094C47.5725 29.1094 48.9602 27.6465 48.9602 25.2607C48.9602 22.8955 47.5588 21.4258 45.3577 21.4258C43.1702 21.4258 41.762 22.9023 41.762 25.2607C41.762 27.6465 43.1565 29.1094 45.3577 29.1094ZM45.3577 27.749C44.1955 27.749 43.4914 26.833 43.4914 25.2676C43.4914 23.709 44.1955 22.7861 45.3577 22.7861C46.5266 22.7861 47.2307 23.7021 47.2307 25.2676C47.2307 26.833 46.5334 27.749 45.3577 27.749ZM56.5787 21.5283H54.8014L53.0377 27.4004H53.0035L51.233 21.5283H49.4215L52.0738 29H53.94L56.5787 21.5283ZM62.5667 21.5283H60.8646V29.2666C60.8646 29.9707 60.5843 30.2373 59.8529 30.2373C59.8118 30.2373 59.6546 30.2373 59.6273 30.2305V31.5361C59.682 31.543 59.9417 31.5498 60.0443 31.5498C61.7259 31.5498 62.5667 30.8047 62.5667 29.2871V21.5283ZM61.7122 20.5781C62.2454 20.5781 62.6693 20.168 62.6693 19.6416C62.6693 19.1084 62.2454 18.7051 61.7122 18.7051C61.1859 18.7051 60.7552 19.1084 60.7552 19.6416C60.7552 20.168 61.1859 20.5781 61.7122 20.5781ZM67.4919 29.1094C69.7067 29.1094 71.0944 27.6465 71.0944 25.2607C71.0944 22.8955 69.693 21.4258 67.4919 21.4258C65.3044 21.4258 63.8962 22.9023 63.8962 25.2607C63.8962 27.6465 65.2907 29.1094 67.4919 29.1094ZM67.4919 27.749C66.3298 27.749 65.6257 26.833 65.6257 25.2676C65.6257 23.709 66.3298 22.7861 67.4919 22.7861C68.6608 22.7861 69.3649 23.7021 69.3649 25.2676C69.3649 26.833 68.6677 27.749 67.4919 27.749ZM73.5245 22.8477L74.4815 19.1357H72.8614L72.1026 22.8477H73.5245ZM75.5512 29H77.2533V24.7139C77.2533 23.6201 77.8822 22.8818 78.9281 22.8818C79.9535 22.8818 80.4594 23.4834 80.4594 24.5498V29H82.1615V24.2148C82.1615 22.4854 81.2182 21.4395 79.5639 21.4395C78.4154 21.4395 77.6635 21.918 77.2191 22.8271H77.185V21.5283H75.5512V29ZM86.4168 27.7764C85.6238 27.7764 85.1043 27.3936 85.1043 26.792C85.1043 26.1836 85.5965 25.8281 86.5261 25.7666L88.2351 25.6572V26.2246C88.2351 27.1338 87.449 27.7764 86.4168 27.7764ZM85.9177 29.082C86.909 29.082 87.8318 28.5967 88.242 27.7969H88.283V29H89.9168V23.8799C89.9168 22.3965 88.7068 21.4258 86.8406 21.4258C85.0838 21.4258 83.8123 22.4033 83.7713 23.7705H85.3435C85.4597 23.1689 86.0134 22.7656 86.7859 22.7656C87.7019 22.7656 88.2351 23.1963 88.2351 23.9893V24.5361L86.2937 24.6523C84.4138 24.7686 83.3953 25.5273 83.3953 26.8604C83.3953 28.1865 84.448 29.082 85.9177 29.082ZM91.964 19.8604V21.5283H90.9454V22.8477H91.964V27.0176C91.964 28.46 92.5929 29.0342 94.1788 29.0342C94.5411 29.0342 94.8898 29.0068 95.0743 28.9658V27.6602C94.965 27.6738 94.7325 27.6943 94.5685 27.6943C93.9532 27.6943 93.6661 27.4004 93.6661 26.7852V22.8477H95.0812V21.5283H93.6661V19.8604H91.964ZM96.4722 29H98.1743V21.5283H96.4722V29ZM97.3198 20.5781C97.853 20.5781 98.2768 20.168 98.2768 19.6416C98.2768 19.1084 97.853 18.7051 97.3198 18.7051C96.7934 18.7051 96.3628 19.1084 96.3628 19.6416C96.3628 20.168 96.7934 20.5781 97.3198 20.5781ZM99.8182 29H101.52V24.7139C101.52 23.6201 102.149 22.8818 103.195 22.8818C104.221 22.8818 104.726 23.4834 104.726 24.5498V29H106.429V24.2148C106.429 22.4854 105.485 21.4395 103.831 21.4395C102.682 21.4395 101.931 21.918 101.486 22.8271H101.452V21.5283H99.8182V29ZM111.258 27.5986C110.137 27.5986 109.412 26.6963 109.412 25.2471C109.412 23.791 110.137 22.8613 111.258 22.8613C112.393 22.8613 113.138 23.8115 113.138 25.2471C113.138 26.6826 112.393 27.5986 111.258 27.5986ZM111.258 31.707C113.452 31.707 114.84 30.5996 114.84 28.8154V21.5283H113.172V22.7861H113.138C112.707 21.959 111.853 21.4463 110.786 21.4463C108.886 21.4463 107.669 22.9229 107.669 25.2402C107.669 27.5234 108.906 28.9727 110.752 28.9727C111.825 28.9727 112.7 28.4736 113.097 27.6738H113.138V28.9453C113.138 29.8682 112.42 30.4355 111.313 30.4355C110.458 30.4355 109.788 30.1006 109.645 29.5605H107.943C108.072 30.8662 109.392 31.707 111.258 31.707Z" fill="white"/>
</svg>
