<svg width="39" height="48" viewBox="0 0 39 48" fill="none" xmlns="http://www.w3.org/2000/svg">
<path d="M37 2V46H2V2H37Z" stroke="black" stroke-width="4"/>
<path d="M20.2542 33V31.7661C23.3077 31.5017 25 29.9153 25 27.3301C25 25.1267 23.7676 23.7656 21.3487 23.2661L20.2542 23.0507V20.0052C21.0452 20.1423 21.6246 20.818 21.6522 21.5916H24.7425C24.7149 19.2609 22.9858 17.6158 20.2542 17.3416V16H18.9298V17.3318C15.959 17.5668 14.2483 19.1532 14.2483 21.6895C14.2483 23.8341 15.4808 25.2442 17.8353 25.7926L18.9298 26.0472V29.2005C17.9457 29.0927 17.2375 28.4171 17.1915 27.5553H14C14.0092 30.0622 15.8211 31.6192 18.9298 31.7857V33H20.2542ZM21.8545 27.7316C21.8545 28.5639 21.2567 29.1221 20.2542 29.2005V26.2823C21.3303 26.4977 21.8545 26.9775 21.8545 27.7316ZM17.4766 21.3566C17.4766 20.6025 18.0744 20.0444 18.9298 19.9856V22.7667C17.9824 22.5611 17.4766 22.0714 17.4766 21.3566Z" fill="#FD665E"/>
</svg>
