<svg width="69" height="36" viewBox="0 0 69 36" fill="none" xmlns="http://www.w3.org/2000/svg">
<g filter="url(#filter0_d_1_55)">
<path d="M17.0814 12.68L12.769 0.524902H10.3606L6.13049 12.3095C5.41003 14.3473 5.07039 14.7178 4 14.9134V15.4177H8.12717V14.9134C6.71714 14.6973 6.5113 14.2444 7.11854 12.3506L7.78753 10.3231H12.3984L13.1601 12.5874C13.7158 14.2753 13.4585 14.7178 12.1514 14.9134V15.4177H19.0678V14.9134C18.0283 14.7178 17.668 14.3267 17.0814 12.68ZM8.01396 9.60262L10.0621 3.32438L12.1617 9.60262H8.01396Z" fill="#FD665E"/>
<path d="M23.0826 5.05347L18.5334 5.60925V6.08269L19.0583 6.24736C19.6244 6.44292 19.717 6.58701 19.717 7.256V13.8018C19.717 14.5223 19.5523 14.7487 18.5334 14.9134V15.4177H24.4205V14.9134C23.2884 14.7281 23.1031 14.512 23.1031 13.6989V8.3058C23.556 7.88382 24.5955 7.61623 25.6144 7.61623C26.2011 7.61623 26.798 7.70886 27.0965 7.82207C27.22 7.57506 27.3332 7.14279 27.3332 6.70022C27.3332 5.77392 26.8907 5.03289 25.9644 5.03289C24.9249 5.03289 24.0603 5.90772 23.0723 7.95587L23.0826 5.05347Z" fill="#FD665E"/>
<path d="M32.6448 15.6236C34.4974 15.6236 36.0413 14.9134 36.8029 13.8224V13.3181C36.2883 13.8224 35.3929 14.1621 34.3945 14.1621C32.3464 14.1621 30.6893 12.5462 30.6893 9.71584C30.6893 7.35892 31.9244 5.85626 33.7873 5.85626C34.3431 5.85626 34.8371 5.99006 35.2282 6.23707C35.2076 6.22678 35.1973 6.22678 35.1767 6.22678C34.3842 6.22678 33.7358 6.88548 33.7358 7.71915C33.7358 8.55282 34.4048 9.21152 35.2488 9.21152C36.0721 9.21152 36.7617 8.56311 36.7617 7.6574C36.7617 6.17532 35.3517 4.99172 32.8713 4.99172C29.5983 4.99172 27.19 7.17366 27.19 10.3231C27.19 13.5857 29.6086 15.6236 32.6448 15.6236Z" fill="#FD665E"/>
<path d="M41.5278 0L36.9581 0.555779V1.02922L37.483 1.20419C38.0594 1.39974 38.1417 1.54383 38.1417 2.21282V13.7813C38.1417 14.5223 37.9564 14.7384 36.9581 14.9134V15.4177H42.557V14.9134C41.6616 14.7487 41.5278 14.5635 41.5278 13.843V7.36921C41.8366 6.79285 42.485 6.40175 43.329 6.40175C44.492 6.40175 45.1713 7.09133 45.1713 8.47048V13.843C45.1713 14.5635 45.0169 14.759 44.142 14.9134V15.4177H49.741V14.9134C48.7221 14.7384 48.5471 14.5223 48.5471 13.7813V8.27493C48.5471 6.05181 47.1371 4.99172 45.0478 4.99172C43.3084 4.99172 42.0424 5.78422 41.5072 6.94723L41.5278 0Z" fill="#FD665E"/>
<path d="M18.2619 17.4299L13.7128 17.9857V18.4591L14.2377 18.6238C14.814 18.8194 14.8964 18.9635 14.8964 19.6324V26.1577C14.8964 26.8987 14.7111 27.1149 13.7128 27.2898V27.7942H19.3117V27.2898C18.4163 27.1355 18.2825 26.9399 18.2825 26.2195V19.7457C18.5913 19.1796 19.1779 18.7782 20.0116 18.7782C21.0923 18.7782 21.7098 19.4575 21.7098 20.8263V26.2195C21.7098 26.9399 21.5863 27.1355 20.6909 27.2898V27.7942H26.1252V27.2898C25.2297 27.1355 25.0959 26.9399 25.0959 26.2195V20.4764C25.0959 20.1882 25.0754 19.9412 25.0239 19.6942C25.343 19.1384 25.9605 18.7782 26.7942 18.7782C27.8851 18.7782 28.5232 19.4575 28.5232 20.8263V26.2195C28.5232 26.9399 28.3894 27.1252 27.494 27.2898V27.7942H33.093V27.2898C32.0843 27.1149 31.9094 26.8987 31.9094 26.1577V20.6308C31.9094 18.4591 30.5611 17.3682 28.513 17.3682C26.7942 17.3682 25.4665 18.1915 24.9621 19.3546C24.5916 18.068 23.3771 17.3682 21.7613 17.3682C20.0116 17.3682 18.7559 18.1915 18.2619 19.3443V17.4299Z" fill="#FD665E"/>
<path d="M39.0839 28C42.398 28 44.8784 25.7975 44.8784 22.6378C44.8784 19.4163 42.4185 17.3682 39.125 17.3682C35.8212 17.3682 33.3408 19.5604 33.3408 22.7201C33.3408 25.9519 35.8007 28 39.0839 28ZM39.1559 27.3207C37.7768 27.3207 36.9225 25.5505 36.9225 22.6069C36.9225 19.7662 37.6635 18.0474 39.0633 18.0474C40.4321 18.0474 41.2864 19.8074 41.2864 22.751C41.2864 25.5916 40.5454 27.3207 39.1559 27.3207Z" fill="#FD665E"/>
<path d="M45.8364 19.7662L48.924 27.8147H50.7766L53.7202 20.1882C54.3583 18.5312 54.6465 18.243 55.4699 18.0783V17.5637H52.0323V18.0783C53.1953 18.243 53.3291 18.5724 52.8454 20.1059L51.2192 24.9844L49.593 20.0853C49.1196 18.5724 49.2534 18.2327 50.4473 18.0783V17.5637H44.2617V18.0783C45.0747 18.2533 45.3526 18.5415 45.8364 19.7662Z" fill="#FD665E"/>
<path d="M54.6679 22.6995C54.6679 25.9724 57.0866 28 60.1536 28C62.068 28 63.6324 27.3104 64.3837 26.1783L64.3734 25.674C63.8588 26.1989 62.9943 26.5797 61.9857 26.5797C59.9066 26.5797 58.3731 25.0667 58.1055 22.3908H64.5175C64.5381 22.2158 64.569 21.9482 64.569 21.6806C64.569 19.1281 62.8605 17.3682 60.0096 17.3682C56.7984 17.3682 54.6679 19.5707 54.6679 22.6995ZM58.054 21.5056C58.054 19.2928 58.7642 18.0474 60.0096 18.0474C61.1005 18.0474 61.5946 19.2208 61.5946 21.0528C61.5946 21.3512 61.5946 21.5674 61.5843 21.7629L58.0643 21.8041C58.054 21.7012 58.054 21.6086 58.054 21.5056Z" fill="#FD665E"/>
</g>
<defs>
<filter id="filter0_d_1_55" x="0" y="0" width="68.569" height="36" filterUnits="userSpaceOnUse" color-interpolation-filters="sRGB">
<feFlood flood-opacity="0" result="BackgroundImageFix"/>
<feColorMatrix in="SourceAlpha" type="matrix" values="0 0 0 0 0 0 0 0 0 0 0 0 0 0 0 0 0 0 127 0" result="hardAlpha"/>
<feOffset dy="4"/>
<feGaussianBlur stdDeviation="2"/>
<feComposite in2="hardAlpha" operator="out"/>
<feColorMatrix type="matrix" values="0 0 0 0 0 0 0 0 0 0 0 0 0 0 0 0 0 0 0.25 0"/>
<feBlend mode="normal" in2="BackgroundImageFix" result="effect1_dropShadow_1_55"/>
<feBlend mode="normal" in="SourceGraphic" in2="effect1_dropShadow_1_55" result="shape"/>
</filter>
</defs>
</svg>
