<svg width="223" height="12" viewBox="0 0 223 12" fill="none" xmlns="http://www.w3.org/2000/svg">
<path d="M11.9375 0.539062H9.20312L6 8.53125H5.9375L2.73438 0.539062H0V11.8125H2.10156V4.20312H2.16406L5.22656 11.7031H6.71094L9.77344 4.20312H9.83594V11.8125H11.9375V0.539062ZM17.0975 10.25C16.2694 10.25 15.7303 9.85156 15.7303 9.21875C15.7303 8.58594 16.2381 8.21094 17.1912 8.14844L18.9959 8.02344V8.65625C18.9959 9.59375 18.1522 10.25 17.0975 10.25ZM16.3553 11.9141C17.4569 11.9141 18.5194 11.3828 18.9881 10.4844H19.035V11.8125H21.2381V5.91406C21.2381 4.19531 19.7928 3.0625 17.5819 3.0625C15.4334 3.0625 13.9491 4.19531 13.8866 5.83594H15.9725C16.0819 5.21094 16.66 4.77344 17.4881 4.77344C18.4256 4.77344 18.9959 5.22656 18.9959 6.05469V6.625L16.8475 6.75781C14.6522 6.89062 13.4569 7.77344 13.4569 9.33594C13.4569 10.875 14.6991 11.9141 16.3553 11.9141ZM22.9372 11.8125H25.2184V6.90625C25.2184 5.76562 25.8747 4.98438 26.9684 4.98438C28.0466 4.98438 28.5778 5.63281 28.5778 6.77344V11.8125H30.8591V6.29688C30.8591 4.28906 29.7809 3.08594 27.8747 3.08594C26.5544 3.08594 25.6794 3.66406 25.1872 4.75H25.1403V3.21094H22.9372V11.8125ZM32.3862 5.74219C32.3862 7 33.2222 7.83594 34.8394 8.20312L36.4253 8.5625C37.2066 8.75 37.5034 8.98438 37.5034 9.42969C37.5034 9.99219 36.9487 10.3438 36.0425 10.3438C35.0972 10.3438 34.5112 9.9375 34.4019 9.21094H32.1753C32.2925 10.8672 33.7144 11.9609 35.98 11.9609C38.23 11.9609 39.7691 10.8594 39.7691 9.1875C39.7691 7.90625 39.0816 7.24219 37.355 6.85156L35.7378 6.5C34.9644 6.32031 34.5894 6.03125 34.5894 5.60156C34.5894 5.04688 35.1362 4.67969 35.9566 4.67969C36.8316 4.67969 37.4019 5.10938 37.4487 5.78906H39.5581C39.5269 4.14844 38.1128 3.0625 35.9878 3.0625C33.8081 3.0625 32.3862 4.125 32.3862 5.74219ZM48.9994 3.21094H46.7181V8.10938C46.7181 9.27344 46.0541 10.0391 44.9916 10.0391C43.9369 10.0391 43.3587 9.41406 43.3587 8.25V3.21094H41.0775V8.72656C41.0775 10.7266 42.3041 11.9375 44.1634 11.9375C45.4681 11.9375 46.3119 11.3359 46.7494 10.2578H46.7962V11.8125H48.9994V3.21094ZM50.7141 11.8125H52.9953V7C52.9953 5.79688 53.675 5.07812 54.8312 5.07812C55.1672 5.07812 55.4797 5.13281 55.675 5.21094V3.19531C55.5109 3.14062 55.2766 3.10938 55.0109 3.10938C53.9953 3.10938 53.2531 3.6875 52.9641 4.75H52.9172V3.21094H50.7141V11.8125ZM60.4522 11.9609C63.0616 11.9609 64.6944 10.2969 64.6944 7.50781C64.6944 4.75 63.0459 3.0625 60.4522 3.0625C57.8662 3.0625 56.21 4.75781 56.21 7.50781C56.21 10.2891 57.8428 11.9609 60.4522 11.9609ZM60.4522 10.2031C59.2491 10.2031 58.5225 9.21875 58.5225 7.50781C58.5225 5.82031 59.2491 4.8125 60.4522 4.8125C61.6475 4.8125 62.3741 5.8125 62.3741 7.50781C62.3741 9.21875 61.6553 10.2031 60.4522 10.2031ZM73.6825 3.21094H71.2997L69.4794 9.77344H69.4325L67.6044 3.21094H65.1669L68.1513 11.8125H70.7138L73.6825 3.21094ZM85.8228 11.8125H88.3306L84.4088 0.539062H81.6353L77.7213 11.8125H80.1431L81.0025 9.07812H84.9634L85.8228 11.8125ZM82.9556 2.69531H83.0103L84.4556 7.3125H81.5103L82.9556 2.69531ZM89.5453 11.8125H91.8266V6.92969C91.8266 5.77344 92.4906 4.98438 93.6156 4.98438C94.7016 4.98438 95.2641 5.66406 95.2641 6.78906V11.8125H97.5453V6.3125C97.5453 4.32031 96.4437 3.08594 94.5375 3.08594C93.225 3.08594 92.3187 3.66406 91.8344 4.75H91.7875V0H89.5453V11.8125ZM99.2209 11.8125H101.502V6.64062C101.502 5.66406 102.127 4.97656 103.026 4.97656C103.908 4.97656 104.44 5.53125 104.44 6.45312V11.8125H106.643V6.60938C106.643 5.63281 107.244 4.97656 108.143 4.97656C109.073 4.97656 109.58 5.53125 109.58 6.53906V11.8125H111.862V5.96875C111.862 4.23438 110.729 3.08594 109.041 3.08594C107.791 3.08594 106.76 3.76562 106.369 4.84375H106.323C106.033 3.71875 105.158 3.08594 103.924 3.08594C102.776 3.08594 101.838 3.73438 101.471 4.77344H101.424V3.21094H99.2209V11.8125ZM116.826 10.25C115.998 10.25 115.459 9.85156 115.459 9.21875C115.459 8.58594 115.967 8.21094 116.92 8.14844L118.725 8.02344V8.65625C118.725 9.59375 117.881 10.25 116.826 10.25ZM116.084 11.9141C117.186 11.9141 118.248 11.3828 118.717 10.4844H118.764V11.8125H120.967V5.91406C120.967 4.19531 119.522 3.0625 117.311 3.0625C115.162 3.0625 113.678 4.19531 113.615 5.83594H115.701C115.811 5.21094 116.389 4.77344 117.217 4.77344C118.154 4.77344 118.725 5.22656 118.725 6.05469V6.625L116.576 6.75781C114.381 6.89062 113.186 7.77344 113.186 9.33594C113.186 10.875 114.428 11.9141 116.084 11.9141ZM125.869 11.9141C127.135 11.9141 128.127 11.2891 128.549 10.3438H128.588V11.8125H130.838V0H128.557V4.67969H128.51C128.08 3.72656 127.119 3.10938 125.877 3.10938C123.736 3.10938 122.346 4.80469 122.346 7.5C122.346 10.2109 123.728 11.9141 125.869 11.9141ZM126.627 4.95312C127.807 4.95312 128.572 5.96094 128.572 7.51562C128.572 9.07031 127.807 10.0703 126.627 10.0703C125.439 10.0703 124.682 9.08594 124.682 7.50781C124.682 5.94531 125.439 4.95312 126.627 4.95312ZM151.525 7.71875V6.75781H135.525V7.71875H151.525ZM161.017 11.9922C163.462 11.9922 165.189 10.6719 165.587 8.47656H164.517C164.181 10.0391 162.822 11 161.025 11C158.626 11 157.087 9.11719 157.087 6.14844C157.087 3.21875 158.626 1.35156 161.017 1.35156C162.767 1.35156 164.204 2.49219 164.517 4.11719H165.587C165.283 1.91406 163.4 0.359375 161.017 0.359375C157.954 0.359375 155.993 2.61719 155.993 6.14844C155.993 9.71875 157.947 11.9922 161.017 11.9922ZM174.13 10.8438H168.388V6.51562H173.841V5.5625H168.388V1.50781H174.13V0.539062H167.325V11.8125H174.13V10.8438ZM180.774 0.359375C177.634 0.359375 175.657 2.60938 175.657 6.17969C175.657 9.75 177.634 11.9922 180.774 11.9922C183.923 11.9922 185.899 9.75 185.899 6.17969C185.899 2.60938 183.915 0.359375 180.774 0.359375ZM180.774 1.35156C183.243 1.35156 184.806 3.21875 184.806 6.17969C184.806 9.13281 183.243 11 180.774 11C178.306 11 176.751 9.13281 176.751 6.17969C176.751 3.21875 178.306 1.35156 180.774 1.35156ZM192.493 11.8125V6.69531H197.665V5.74219H192.493V1.50781H198.118V0.539062H191.43V11.8125H192.493ZM202.028 11C200.856 11 200.059 10.3828 200.059 9.47656C200.059 8.53125 200.809 7.98438 202.223 7.89062L204.684 7.71875V8.64844C204.684 9.97656 203.536 11 202.028 11ZM201.825 11.9062C203.114 11.9062 204.254 11.2266 204.708 10.2031H204.731V11.8125H205.715V6.07812C205.715 4.38281 204.489 3.30469 202.559 3.30469C200.793 3.30469 199.465 4.35156 199.379 5.82812H200.372C200.559 4.82812 201.379 4.22656 202.551 4.22656C203.911 4.22656 204.684 4.9375 204.684 6.16406V6.88281L202.098 7.05469C200.083 7.19531 199.004 8.03125 199.004 9.46875C199.004 10.9219 200.145 11.9062 201.825 11.9062ZM207.344 11.8125H213.578V10.9453H208.532V10.9219L213.563 4.1875V3.39844H207.344V4.26562H212.383V4.28125L207.344 11.0312V11.8125ZM218.574 11.9062C220.887 11.9062 222.402 10.2266 222.402 7.60156C222.402 4.97656 220.887 3.30469 218.574 3.30469C216.262 3.30469 214.754 4.97656 214.754 7.60156C214.754 10.2266 216.262 11.9062 218.574 11.9062ZM218.574 10.9766C216.871 10.9766 215.809 9.70312 215.809 7.60156C215.809 5.50781 216.871 4.22656 218.574 4.22656C220.285 4.22656 221.348 5.5 221.348 7.60156C221.348 9.70312 220.285 10.9766 218.574 10.9766Z" fill="black"/>
</svg>
