<svg width="755" height="221" viewBox="0 0 755 221" fill="none" xmlns="http://www.w3.org/2000/svg">
<path d="M2.625 42.3828C2.625 66.9922 21.1641 83.0156 44.5703 83.0156C69.6172 83.0156 86.1875 65.0234 86.1875 42.1094C86.1875 17.5 67.6484 1.53125 44.2422 1.53125C19.1406 1.53125 2.625 19.4688 2.625 42.3828ZM24.1172 41.6172C24.1172 19.9609 29.9141 5.25 44.0234 5.25C56.8203 5.25 64.75 20.5078 64.75 42.875C64.75 64.5312 58.9531 79.2969 44.8438 79.2969C31.9375 79.2969 24.1172 63.9297 24.1172 41.6172ZM112.934 26.6875L88.7622 29.6406V32.1562L91.5512 33.0312C94.5591 34.0703 95.0512 34.8359 95.0512 38.3906V73.1719C95.0512 77 94.1762 78.2031 88.7622 79.0781V81.7578H120.043V79.0781C114.028 78.0938 113.043 76.9453 113.043 72.625V43.9688C115.45 41.7266 120.973 40.3047 126.387 40.3047C129.504 40.3047 132.676 40.7969 134.262 41.3984C134.918 40.0859 135.52 37.7891 135.52 35.4375C135.52 30.5156 133.168 26.5781 128.247 26.5781C122.723 26.5781 118.129 31.2266 112.879 42.1094L112.934 26.6875ZM136.837 27.3984L136.399 45.4453H138.97C141.54 34.7266 144.985 31.5 155.813 30.7891L163.306 30.4609L135.634 79.2969V81.7578H182.884L183.212 62.3984H180.642C178.399 74.375 174.626 77.8203 164.235 78.4219L155.321 78.75L182.993 29.8594V27.3984H136.837ZM207.06 26.6875L182.779 29.6406V32.1562L185.622 33.0312C188.63 34.0703 189.068 34.8359 189.068 38.3906V65.2422C189.068 77.1641 196.396 82.8516 207.115 82.8516C216.357 82.8516 223.029 78.5859 225.818 72.3516V82.4141L249.935 79.7344V77.2188L247.146 76.3984C244.083 75.3047 243.701 74.5391 243.701 70.9844V26.6875L219.365 29.6406V32.1562L222.208 33.0312C225.271 34.0703 225.708 34.8359 225.708 38.3906V70.2734C224.068 73.2266 220.787 75.3047 216.576 75.3047C210.451 75.3047 207.06 71.6406 207.06 64.2578V26.6875ZM254.15 39.1016L273.182 84.4375C269.08 91.6016 261.807 101.281 256.502 106.695V106.914H269.682L277.939 83.7812L285.213 66.4453L295.768 40.6875C299.103 32.5391 300.635 31.0078 305.119 30.1328V27.3984H286.635V30.1328C292.814 31.0078 293.525 32.7578 290.9 40.25L282.478 64.5312L273.893 40.0312C271.377 32.7031 271.978 30.9531 278.268 30.1328V27.3984H245.728V30.1328C249.994 31.0078 251.361 32.375 254.15 39.1016ZM317.209 19.5234C322.295 19.5234 326.397 15.8047 326.397 10.8828C326.397 5.85156 322.295 2.1875 317.209 2.1875C312.123 2.1875 308.022 5.85156 308.022 10.8828C308.022 15.8047 312.123 19.5234 317.209 19.5234ZM327.217 26.6875L302.936 29.6406V32.1562L305.725 33.0312C308.788 34.0703 309.225 34.8359 309.225 38.3906V73.0625C309.225 77 308.241 78.1484 302.936 79.0781V81.7578H333.506V79.0781C328.202 78.1484 327.217 77 327.217 73.0625V26.6875ZM357.847 26.6875L333.675 29.6406V32.1562L336.464 33.0312C339.526 34.0703 339.964 34.8359 339.964 38.3906V73.0625C339.964 77 338.979 78.1484 333.675 79.0781V81.7578H363.425V79.0781C358.667 78.2031 357.956 77.2188 357.956 73.3906V38.9922C359.597 35.9297 363.042 33.8516 367.526 33.8516C373.706 33.8516 377.315 37.5156 377.315 44.8438V73.3906C377.315 77.2188 376.495 78.2578 371.847 79.0781V81.7578H401.597V79.0781C396.182 78.1484 395.253 77 395.253 73.0625V43.8047C395.253 31.9922 387.761 26.3594 376.659 26.3594C367.362 26.3594 360.581 30.625 357.847 36.8594V26.6875ZM403.57 44.3516C403.57 53.2656 411.171 58.8438 421.234 60.375C410.078 61.6328 403.734 66.6094 403.679 73.6641C403.679 80.8828 411.117 85.4219 422.109 85.4219C407.562 86.0781 401.492 90.125 401.492 95.9219C401.546 103.414 412.265 108.445 429.765 108.445C446.499 108.445 459.624 100.242 459.624 88.1562C459.624 77.5469 451.804 71.3125 436.218 71.3125H427.031C420.796 71.3125 417.679 69.5625 417.679 66.4453C417.679 63.6562 419.976 61.8516 423.695 61.0859C425.937 61.3594 427.96 61.5234 430.093 61.5234C444.695 61.5234 456.234 55.0703 456.234 44.1328C456.234 38.2266 452.46 33.3594 446.554 31.2266L461.703 32.375V27.3438L443.163 28.6016C439.554 27.2891 434.851 26.3594 429.71 26.3594C414.726 26.3594 403.57 33.4688 403.57 44.3516ZM421.179 43.6953C421.179 35.1094 424.078 29.6953 429.82 29.6953C435.453 29.6953 438.734 35.4375 438.734 44.1875C438.734 52.8281 435.671 58.1875 430.093 58.1875C424.57 58.1875 421.179 52.5547 421.179 43.6953ZM416.476 94.8281C416.476 89.8516 419.593 86.5703 425.226 85.9688H433.484C441.468 85.9688 445.023 89.1406 445.023 94.3906C445.023 100.734 438.953 104.836 430.038 104.836C421.617 104.836 416.476 100.68 416.476 94.8281ZM475.379 19.5234C480.465 19.5234 484.566 15.8047 484.566 10.8828C484.566 5.85156 480.465 2.1875 475.379 2.1875C470.293 2.1875 466.191 5.85156 466.191 10.8828C466.191 15.8047 470.293 19.5234 475.379 19.5234ZM485.387 26.6875L461.105 29.6406V32.1562L463.894 33.0312C466.957 34.0703 467.394 34.8359 467.394 38.3906V73.0625C467.394 77 466.41 78.1484 461.105 79.0781V81.7578H491.676V79.0781C486.371 78.1484 485.387 77 485.387 73.0625V26.6875ZM493.211 27.3984L492.774 45.4453H495.344C497.914 34.7266 501.36 31.5 512.188 30.7891L519.68 30.4609L492.008 79.2969V81.7578H539.258L539.586 62.3984H537.016C534.774 74.375 531 77.8203 520.61 78.4219L511.696 78.75L539.367 29.8594V27.3984H493.211ZM541.122 55.125C541.122 72.7344 551.02 82.8516 563.325 82.8516C571.692 82.8516 578.419 78.75 581.098 72.2969V82.4141L605.325 79.7344V77.2734L602.481 76.3438C599.364 75.3047 598.927 74.5391 598.927 70.9844V0L574.591 2.78906V5.30469L577.434 6.23438C580.497 7.27344 580.934 8.03906 580.934 11.5938V33.1953C578.638 29.0938 573.005 26.3594 566.333 26.3594C552.606 26.3594 541.122 36.75 541.122 55.125ZM559.661 53.4844C559.661 39.4844 564.856 31.6094 572.458 31.6094C576.341 31.6094 579.731 33.7422 580.934 36.4219V70.1094C579.294 73.2812 576.177 75.3047 571.911 75.3047C564.802 75.3047 559.661 67.4297 559.661 53.4844ZM622.501 82.8516C631.47 82.8516 638.525 79.1328 640.657 73.5547C641.697 79.5156 647.548 82.5781 654.111 82.5781C658.868 82.5781 663.025 81.3203 665.267 79.7344V77.2188C664.72 77.3828 663.954 77.4922 663.134 77.4922C660.126 77.4922 657.884 75.5781 657.884 71.0391V44.8438C657.884 32.0469 648.642 26.3594 633.22 26.3594C618.126 26.3594 608.775 32.4844 608.775 40.0312C608.775 44.4062 612.329 47.6328 616.814 47.6328C621.353 47.6328 624.907 44.2422 624.907 39.8672C624.907 36.0938 622.282 33.0859 618.837 32.375C621.243 31.2812 624.032 30.6797 627.04 30.6797C635.462 30.6797 640.329 34.5625 640.329 44.5703V50.3125L629.611 52.5C612.876 55.8359 606.587 61.4141 606.587 69.6172C606.587 77.5469 613.095 82.8516 622.501 82.8516ZM624.251 66.8281C624.251 60.5391 627.423 56.3828 636.501 54.25L640.329 53.375V71.4219C638.853 74.375 635.954 76.0156 632.181 76.0156C627.697 76.0156 624.251 72.7891 624.251 66.8281ZM666.092 44.3516C666.092 53.2656 673.693 58.8438 683.756 60.375C672.599 61.6328 666.256 66.6094 666.201 73.6641C666.201 80.8828 673.638 85.4219 684.631 85.4219C670.084 86.0781 664.013 90.125 664.013 95.9219C664.068 103.414 674.787 108.445 692.287 108.445C709.021 108.445 722.146 100.242 722.146 88.1562C722.146 77.5469 714.326 71.3125 698.74 71.3125H689.552C683.318 71.3125 680.201 69.5625 680.201 66.4453C680.201 63.6562 682.498 61.8516 686.217 61.0859C688.459 61.3594 690.482 61.5234 692.615 61.5234C707.217 61.5234 718.756 55.0703 718.756 44.1328C718.756 38.2266 714.982 33.3594 709.076 31.2266L724.224 32.375V27.3438L705.685 28.6016C702.076 27.2891 697.373 26.3594 692.232 26.3594C677.248 26.3594 666.092 33.4688 666.092 44.3516ZM683.701 43.6953C683.701 35.1094 686.599 29.6953 692.342 29.6953C697.974 29.6953 701.256 35.4375 701.256 44.1875C701.256 52.8281 698.193 58.1875 692.615 58.1875C687.092 58.1875 683.701 52.5547 683.701 43.6953ZM678.998 94.8281C678.998 89.8516 682.115 86.5703 687.748 85.9688H696.006C703.99 85.9688 707.545 89.1406 707.545 94.3906C707.545 100.734 701.474 104.836 692.56 104.836C684.138 104.836 678.998 100.68 678.998 94.8281ZM737.901 19.5234C742.987 19.5234 747.088 15.8047 747.088 10.8828C747.088 5.85156 742.987 2.1875 737.901 2.1875C732.815 2.1875 728.713 5.85156 728.713 10.8828C728.713 15.8047 732.815 19.5234 737.901 19.5234ZM747.908 26.6875L723.627 29.6406V32.1562L726.416 33.0312C729.479 34.0703 729.916 34.8359 729.916 38.3906V73.0625C729.916 77 728.932 78.1484 723.627 79.0781V81.7578H754.198V79.0781C748.893 78.1484 747.908 77 747.908 73.0625V26.6875ZM155.485 138.688L131.313 141.641V144.156L134.102 145.031C137.165 146.07 137.602 146.836 137.602 150.391V185.062C137.602 189 136.618 190.148 131.313 191.078V193.758H161.063V191.078C156.306 190.203 155.595 189.219 155.595 185.391V150.992C157.235 147.93 160.681 145.852 165.165 145.852C171.345 145.852 174.954 149.516 174.954 156.844V185.391C174.954 189.219 174.134 190.258 169.485 191.078V193.758H199.235V191.078C193.821 190.148 192.892 189 192.892 185.062V155.805C192.892 143.992 185.399 138.359 174.298 138.359C165.001 138.359 158.22 142.625 155.485 148.859V138.688ZM213.513 131.523C218.599 131.523 222.701 127.805 222.701 122.883C222.701 117.852 218.599 114.188 213.513 114.188C208.427 114.188 204.326 117.852 204.326 122.883C204.326 127.805 208.427 131.523 213.513 131.523ZM223.521 138.688L199.24 141.641V144.156L202.029 145.031C205.091 146.07 205.529 146.836 205.529 150.391V185.062C205.529 189 204.544 190.148 199.24 191.078V193.758H229.81V191.078C224.505 190.148 223.521 189 223.521 185.062V138.688ZM252.131 167.07C252.131 184.68 262.03 194.797 274.334 194.797C282.702 194.797 289.428 190.75 292.053 184.297L291.944 209.781C291.889 214.102 290.959 215.25 284.944 216.234V218.914H316.225V216.234C310.811 215.359 309.936 214.156 309.936 210.328V139.398H299.873L293.42 146.344C291.069 141.75 285.163 138.305 277.67 138.305C263.78 138.305 252.131 148.695 252.131 167.07ZM270.67 165.43C270.67 151.43 275.866 143.609 283.522 143.609C287.405 143.609 290.686 145.797 291.944 148.422V182.109C290.303 185.281 287.186 187.25 282.92 187.25C275.811 187.25 270.67 179.375 270.67 165.43ZM338.542 138.688L314.261 141.641V144.156L317.104 145.031C320.112 146.07 320.55 146.836 320.55 150.391V177.242C320.55 189.164 327.878 194.852 338.597 194.852C347.839 194.852 354.511 190.586 357.3 184.352V194.414L381.417 191.734V189.219L378.628 188.398C375.565 187.305 375.182 186.539 375.182 182.984V138.688L350.847 141.641V144.156L353.69 145.031C356.753 146.07 357.19 146.836 357.19 150.391V182.273C355.55 185.227 352.268 187.305 348.057 187.305C341.932 187.305 338.542 183.641 338.542 176.258V138.688ZM405.757 138.688L381.585 141.641V144.156L384.374 145.031C387.382 146.07 387.874 146.836 387.874 150.391V185.172C387.874 189 386.999 190.203 381.585 191.078V193.758H412.867V191.078C406.851 190.094 405.867 188.945 405.867 184.625V155.969C408.273 153.727 413.796 152.305 419.21 152.305C422.328 152.305 425.499 152.797 427.085 153.398C427.742 152.086 428.343 149.789 428.343 147.438C428.343 142.516 425.992 138.578 421.07 138.578C415.546 138.578 410.953 143.227 405.703 154.109L405.757 138.688ZM442.566 131.523C447.652 131.523 451.754 127.805 451.754 122.883C451.754 117.852 447.652 114.188 442.566 114.188C437.48 114.188 433.379 117.852 433.379 122.883C433.379 127.805 437.48 131.523 442.566 131.523ZM452.574 138.688L428.293 141.641V144.156L431.082 145.031C434.144 146.07 434.582 146.836 434.582 150.391V185.062C434.582 189 433.598 190.148 428.293 191.078V193.758H458.863V191.078C453.558 190.148 452.574 189 452.574 185.062V138.688ZM483.203 138.688L459.032 141.641V144.156L461.821 145.031C464.883 146.07 465.321 146.836 465.321 150.391V185.062C465.321 189 464.336 190.148 459.032 191.078V193.758H488.782V191.078C484.024 190.203 483.313 189.219 483.313 185.391V150.992C484.953 147.93 488.399 145.852 492.883 145.852C499.063 145.852 502.672 149.516 502.672 156.844V185.391C502.672 189.219 501.852 190.258 497.203 191.078V193.758H526.953V191.078C521.539 190.148 520.61 189 520.61 185.062V155.805C520.61 143.992 513.117 138.359 502.016 138.359C492.719 138.359 485.938 142.625 483.203 148.859V138.688ZM528.927 156.352C528.927 165.266 536.528 170.844 546.591 172.375C535.434 173.633 529.091 178.609 529.036 185.664C529.036 192.883 536.473 197.422 547.466 197.422C532.919 198.078 526.848 202.125 526.848 207.922C526.903 215.414 537.622 220.445 555.122 220.445C571.856 220.445 584.981 212.242 584.981 200.156C584.981 189.547 577.161 183.312 561.575 183.312H552.388C546.153 183.312 543.036 181.562 543.036 178.445C543.036 175.656 545.333 173.852 549.052 173.086C551.294 173.359 553.317 173.523 555.45 173.523C570.052 173.523 581.591 167.07 581.591 156.133C581.591 150.227 577.817 145.359 571.911 143.227L587.059 144.375V139.344L568.52 140.602C564.911 139.289 560.208 138.359 555.067 138.359C540.083 138.359 528.927 145.469 528.927 156.352ZM546.536 155.695C546.536 147.109 549.434 141.695 555.177 141.695C560.809 141.695 564.091 147.438 564.091 156.188C564.091 164.828 561.028 170.188 555.45 170.188C549.927 170.188 546.536 164.555 546.536 155.695ZM541.833 206.828C541.833 201.852 544.95 198.57 550.583 197.969H558.841C566.825 197.969 570.38 201.141 570.38 206.391C570.38 212.734 564.309 216.836 555.395 216.836C546.973 216.836 541.833 212.68 541.833 206.828Z" fill="black"/>
<path d="M6.89062 124.578V163.406C6.89062 185.5 21.875 195.016 40.0859 195.016C60.2109 195.016 71.0391 182.602 71.3125 163.898L71.8594 129.281C72.0781 120.586 73.0625 118.508 79.1328 117.523V114.789H58.7891V117.523C65.5156 118.617 66.5547 120.641 66.7734 129.445L67.3203 162.969C67.5938 178.938 59.2266 188.234 46.7578 188.234C34.6719 188.234 26.3047 180.305 26.3047 163.133V124.852C26.3047 119.93 27.5078 118.617 33.6875 117.469V114.789H0V117.469C5.6875 118.508 6.89062 119.766 6.89062 124.578ZM82.5278 151.102L101.559 196.438C97.4575 203.602 90.1841 213.281 84.8794 218.695V218.914H98.0591L106.317 195.781L113.59 178.445L124.145 152.688C127.481 144.539 129.012 143.008 133.497 142.133V139.398H115.012V142.133C121.192 143.008 121.903 144.758 119.278 152.25L110.856 176.531L102.27 152.031C99.7544 144.703 100.356 142.953 106.645 142.133V139.398H74.1059V142.133C78.3716 143.008 79.7387 144.375 82.5278 151.102Z" fill="#FD665E"/>
</svg>
