<svg width="507" height="167" viewBox="0 0 507 167" fill="none" xmlns="http://www.w3.org/2000/svg">
<path d="M2.22656 18.2344C2.22656 28.7812 10.1719 35.6484 20.2031 35.6484C30.9375 35.6484 38.0391 27.9375 38.0391 18.1172C38.0391 7.57031 30.0938 0.726562 20.0625 0.726562C9.30469 0.726562 2.22656 8.41406 2.22656 18.2344ZM11.4375 17.9062C11.4375 8.625 13.9219 2.32031 19.9688 2.32031C25.4531 2.32031 28.8516 8.85938 28.8516 18.4453C28.8516 27.7266 26.3672 34.0547 20.3203 34.0547C14.7891 34.0547 11.4375 27.4688 11.4375 17.9062ZM49.5019 11.5078L39.1425 12.7734V13.8516L40.3378 14.2266C41.6269 14.6719 41.8378 15 41.8378 16.5234V31.4297C41.8378 33.0703 41.4628 33.5859 39.1425 33.9609V35.1094H52.5488V33.9609C49.9706 33.5391 49.5488 33.0469 49.5488 31.1953V18.9141C50.58 17.9531 52.9472 17.3438 55.2675 17.3438C56.6034 17.3438 57.9628 17.5547 58.6425 17.8125C58.9238 17.25 59.1816 16.2656 59.1816 15.2578C59.1816 13.1484 58.1738 11.4609 56.0644 11.4609C53.6972 11.4609 51.7284 13.4531 49.4784 18.1172L49.5019 11.5078ZM59.7459 11.8125L59.5584 19.5469H60.66C61.7616 14.9531 63.2381 13.5703 67.8787 13.2656L71.0897 13.125L59.2303 34.0547V35.1094H79.4803L79.6209 26.8125H78.5194C77.5584 31.9453 75.9412 33.4219 71.4881 33.6797L67.6678 33.8203L79.5272 12.8672V11.8125H59.7459ZM89.8416 11.5078L79.4353 12.7734V13.8516L80.6541 14.2266C81.9431 14.6719 82.1306 15 82.1306 16.5234V28.0312C82.1306 33.1406 85.2712 35.5781 89.865 35.5781C93.8259 35.5781 96.6853 33.75 97.8806 31.0781V35.3906L108.217 34.2422V33.1641L107.021 32.8125C105.709 32.3438 105.545 32.0156 105.545 30.4922V11.5078L95.115 12.7734V13.8516L96.3337 14.2266C97.6462 14.6719 97.8337 15 97.8337 16.5234V30.1875C97.1306 31.4531 95.7244 32.3438 93.9197 32.3438C91.2947 32.3438 89.8416 30.7734 89.8416 27.6094V11.5078ZM110.023 16.8281L118.179 36.2578C116.422 39.3281 113.304 43.4766 111.031 45.7969V45.8906H116.679L120.218 35.9766L123.336 28.5469L127.859 17.5078C129.289 14.0156 129.945 13.3594 131.867 12.9844V11.8125H123.945V12.9844C126.593 13.3594 126.898 14.1094 125.773 17.3203L122.164 27.7266L118.484 17.2266C117.406 14.0859 117.664 13.3359 120.359 12.9844V11.8125H106.414V12.9844C108.242 13.3594 108.828 13.9453 110.023 16.8281ZM137.048 8.4375C139.228 8.4375 140.986 6.84375 140.986 4.73438C140.986 2.57812 139.228 1.00781 137.048 1.00781C134.869 1.00781 133.111 2.57812 133.111 4.73438C133.111 6.84375 134.869 8.4375 137.048 8.4375ZM141.337 11.5078L130.931 12.7734V13.8516L132.127 14.2266C133.439 14.6719 133.627 15 133.627 16.5234V31.3828C133.627 33.0703 133.205 33.5625 130.931 33.9609V35.1094H144.033V33.9609C141.759 33.5625 141.337 33.0703 141.337 31.3828V11.5078ZM154.464 11.5078L144.105 12.7734V13.8516L145.3 14.2266C146.613 14.6719 146.8 15 146.8 16.5234V31.3828C146.8 33.0703 146.378 33.5625 144.105 33.9609V35.1094H156.855V33.9609C154.816 33.5859 154.511 33.1641 154.511 31.5234V16.7812C155.214 15.4688 156.691 14.5781 158.613 14.5781C161.261 14.5781 162.808 16.1484 162.808 19.2891V31.5234C162.808 33.1641 162.457 33.6094 160.464 33.9609V35.1094H173.214V33.9609C170.894 33.5625 170.496 33.0703 170.496 31.3828V18.8438C170.496 13.7812 167.285 11.3672 162.527 11.3672C158.542 11.3672 155.636 13.1953 154.464 15.8672V11.5078ZM174.06 19.0781C174.06 22.8984 177.318 25.2891 181.63 25.9453C176.849 26.4844 174.13 28.6172 174.107 31.6406C174.107 34.7344 177.294 36.6797 182.005 36.6797C175.771 36.9609 173.169 38.6953 173.169 41.1797C173.193 44.3906 177.787 46.5469 185.287 46.5469C192.458 46.5469 198.083 43.0312 198.083 37.8516C198.083 33.3047 194.732 30.6328 188.052 30.6328H184.115C181.443 30.6328 180.107 29.8828 180.107 28.5469C180.107 27.3516 181.091 26.5781 182.685 26.25C183.646 26.3672 184.513 26.4375 185.427 26.4375C191.685 26.4375 196.63 23.6719 196.63 18.9844C196.63 16.4531 195.013 14.3672 192.482 13.4531L198.974 13.9453V11.7891L191.029 12.3281C189.482 11.7656 187.466 11.3672 185.263 11.3672C178.841 11.3672 174.06 14.4141 174.06 19.0781ZM181.607 18.7969C181.607 15.1172 182.849 12.7969 185.31 12.7969C187.724 12.7969 189.13 15.2578 189.13 19.0078C189.13 22.7109 187.818 25.0078 185.427 25.0078C183.06 25.0078 181.607 22.5938 181.607 18.7969ZM179.591 40.7109C179.591 38.5781 180.927 37.1719 183.341 36.9141H186.88C190.302 36.9141 191.826 38.2734 191.826 40.5234C191.826 43.2422 189.224 45 185.404 45C181.794 45 179.591 43.2188 179.591 40.7109ZM204.835 8.4375C207.015 8.4375 208.773 6.84375 208.773 4.73438C208.773 2.57812 207.015 1.00781 204.835 1.00781C202.656 1.00781 200.898 2.57812 200.898 4.73438C200.898 6.84375 202.656 8.4375 204.835 8.4375ZM209.124 11.5078L198.718 12.7734V13.8516L199.913 14.2266C201.226 14.6719 201.413 15 201.413 16.5234V31.3828C201.413 33.0703 200.992 33.5625 198.718 33.9609V35.1094H211.82V33.9609C209.546 33.5625 209.124 33.0703 209.124 31.3828V11.5078ZM212.478 11.8125L212.29 19.5469H213.392C214.493 14.9531 215.97 13.5703 220.611 13.2656L223.822 13.125L211.962 34.0547V35.1094H232.212L232.353 26.8125H231.251C230.29 31.9453 228.673 33.4219 224.22 33.6797L220.4 33.8203L232.259 12.8672V11.8125H212.478ZM233.011 23.6953C233.011 31.2422 237.253 35.5781 242.527 35.5781C246.113 35.5781 248.995 33.8203 250.144 31.0547V35.3906L260.527 34.2422V33.1875L259.308 32.7891C257.972 32.3438 257.784 32.0156 257.784 30.4922V0.0703125L247.355 1.26562V2.34375L248.573 2.74219C249.886 3.1875 250.073 3.51562 250.073 5.03906V14.2969C249.089 12.5391 246.675 11.3672 243.816 11.3672C237.933 11.3672 233.011 15.8203 233.011 23.6953ZM240.956 22.9922C240.956 16.9922 243.183 13.6172 246.441 13.6172C248.105 13.6172 249.558 14.5312 250.073 15.6797V30.1172C249.37 31.4766 248.034 32.3438 246.206 32.3438C243.159 32.3438 240.956 28.9688 240.956 22.9922ZM267.888 35.5781C271.732 35.5781 274.755 33.9844 275.669 31.5938C276.114 34.1484 278.622 35.4609 281.435 35.4609C283.474 35.4609 285.255 34.9219 286.216 34.2422V33.1641C285.982 33.2344 285.653 33.2812 285.302 33.2812C284.013 33.2812 283.052 32.4609 283.052 30.5156V19.2891C283.052 13.8047 279.091 11.3672 272.482 11.3672C266.013 11.3672 262.005 13.9922 262.005 17.2266C262.005 19.1016 263.528 20.4844 265.45 20.4844C267.396 20.4844 268.919 19.0312 268.919 17.1562C268.919 15.5391 267.794 14.25 266.318 13.9453C267.349 13.4766 268.544 13.2188 269.833 13.2188C273.443 13.2188 275.528 14.8828 275.528 19.1719V21.6328L270.935 22.5703C263.763 24 261.068 26.3906 261.068 29.9062C261.068 33.3047 263.857 35.5781 267.888 35.5781ZM268.638 28.7109C268.638 26.0156 269.997 24.2344 273.888 23.3203L275.528 22.9453V30.6797C274.896 31.9453 273.653 32.6484 272.036 32.6484C270.114 32.6484 268.638 31.2656 268.638 28.7109ZM286.569 19.0781C286.569 22.8984 289.827 25.2891 294.14 25.9453C289.358 26.4844 286.64 28.6172 286.616 31.6406C286.616 34.7344 289.804 36.6797 294.515 36.6797C288.28 36.9609 285.679 38.6953 285.679 41.1797C285.702 44.3906 290.296 46.5469 297.796 46.5469C304.968 46.5469 310.593 43.0312 310.593 37.8516C310.593 33.3047 307.241 30.6328 300.562 30.6328H296.624C293.952 30.6328 292.616 29.8828 292.616 28.5469C292.616 27.3516 293.601 26.5781 295.194 26.25C296.155 26.3672 297.022 26.4375 297.937 26.4375C304.194 26.4375 309.14 23.6719 309.14 18.9844C309.14 16.4531 307.522 14.3672 304.991 13.4531L311.483 13.9453V11.7891L303.538 12.3281C301.991 11.7656 299.976 11.3672 297.772 11.3672C291.351 11.3672 286.569 14.4141 286.569 19.0781ZM294.116 18.7969C294.116 15.1172 295.358 12.7969 297.819 12.7969C300.233 12.7969 301.64 15.2578 301.64 19.0078C301.64 22.7109 300.327 25.0078 297.937 25.0078C295.569 25.0078 294.116 22.5938 294.116 18.7969ZM292.101 40.7109C292.101 38.5781 293.437 37.1719 295.851 36.9141H299.39C302.812 36.9141 304.335 38.2734 304.335 40.5234C304.335 43.2422 301.733 45 297.913 45C294.304 45 292.101 43.2188 292.101 40.7109ZM317.345 8.4375C319.524 8.4375 321.282 6.84375 321.282 4.73438C321.282 2.57812 319.524 1.00781 317.345 1.00781C315.165 1.00781 313.407 2.57812 313.407 4.73438C313.407 6.84375 315.165 8.4375 317.345 8.4375ZM321.634 11.5078L311.228 12.7734V13.8516L312.423 14.2266C313.735 14.6719 313.923 15 313.923 16.5234V31.3828C313.923 33.0703 313.501 33.5625 311.228 33.9609V35.1094H324.329V33.9609C322.056 33.5625 321.634 33.0703 321.634 31.3828V11.5078ZM343.716 0L333.309 1.26562V2.34375L334.505 2.74219C335.817 3.1875 336.005 3.51562 336.005 5.03906V31.3828C336.005 33.0703 335.583 33.5625 333.309 33.9609V35.1094H346.411V33.9609C344.138 33.5625 343.716 33.0703 343.716 31.3828V0ZM360.194 35.5781C367.741 35.5781 373.389 30.5625 373.389 23.3672C373.389 16.0312 367.788 11.3672 360.288 11.3672C352.764 11.3672 347.116 16.3594 347.116 23.5547C347.116 30.9141 352.717 35.5781 360.194 35.5781ZM360.358 34.0312C357.217 34.0312 355.272 30 355.272 23.2969C355.272 16.8281 356.96 12.9141 360.147 12.9141C363.264 12.9141 365.21 16.9219 365.21 23.625C365.21 30.0938 363.522 34.0312 360.358 34.0312ZM375.594 16.8281L383.751 36.2578C381.993 39.3281 378.876 43.4766 376.602 45.7969V45.8906H382.251L385.79 35.9766L388.907 28.5469L393.43 17.5078C394.86 14.0156 395.516 13.3594 397.438 12.9844V11.8125H389.516V12.9844C392.165 13.3594 392.469 14.1094 391.344 17.3203L387.735 27.7266L384.055 17.2266C382.977 14.0859 383.235 13.3359 385.93 12.9844V11.8125H371.985V12.9844C373.813 13.3594 374.399 13.9453 375.594 16.8281ZM402.62 8.4375C404.799 8.4375 406.557 6.84375 406.557 4.73438C406.557 2.57812 404.799 1.00781 402.62 1.00781C400.44 1.00781 398.682 2.57812 398.682 4.73438C398.682 6.84375 400.44 8.4375 402.62 8.4375ZM406.909 11.5078L396.503 12.7734V13.8516L397.698 14.2266C399.01 14.6719 399.198 15 399.198 16.5234V31.3828C399.198 33.0703 398.776 33.5625 396.503 33.9609V35.1094H409.604V33.9609C407.331 33.5625 406.909 33.0703 406.909 31.3828V11.5078ZM420.082 0L409.676 1.26562V2.34375L410.872 2.74219C412.184 3.1875 412.372 3.51562 412.372 5.03906V31.3828C412.372 33.0703 411.95 33.5625 409.676 33.9609V35.1094H422.426V33.9609C420.387 33.5859 420.082 33.1641 420.082 31.5234V16.7812C420.786 15.4688 422.262 14.5781 424.184 14.5781C426.832 14.5781 428.379 16.1484 428.379 19.2891V31.5234C428.379 33.1641 428.028 33.6094 426.036 33.9609V35.1094H438.786V33.9609C436.465 33.5625 436.067 33.0703 436.067 31.3828V18.8438C436.067 13.7812 432.856 11.3672 428.098 11.3672C424.137 11.3672 421.254 13.1719 420.036 15.8203L420.082 0ZM446.123 35.5781C449.967 35.5781 452.991 33.9844 453.905 31.5938C454.35 34.1484 456.858 35.4609 459.67 35.4609C461.709 35.4609 463.491 34.9219 464.452 34.2422V33.1641C464.217 33.2344 463.889 33.2812 463.538 33.2812C462.248 33.2812 461.288 32.4609 461.288 30.5156V19.2891C461.288 13.8047 457.327 11.3672 450.717 11.3672C444.248 11.3672 440.241 13.9922 440.241 17.2266C440.241 19.1016 441.764 20.4844 443.686 20.4844C445.631 20.4844 447.155 19.0312 447.155 17.1562C447.155 15.5391 446.03 14.25 444.553 13.9453C445.584 13.4766 446.78 13.2188 448.069 13.2188C451.678 13.2188 453.764 14.8828 453.764 19.1719V21.6328L449.17 22.5703C441.998 24 439.303 26.3906 439.303 29.9062C439.303 33.3047 442.092 35.5781 446.123 35.5781ZM446.873 28.7109C446.873 26.0156 448.233 24.2344 452.123 23.3203L453.764 22.9453V30.6797C453.131 31.9453 451.889 32.6484 450.272 32.6484C448.35 32.6484 446.873 31.2656 446.873 28.7109ZM474.321 11.5078L463.961 12.7734V13.8516L465.157 14.2266C466.469 14.6719 466.657 15 466.657 16.5234V31.3828C466.657 33.0703 466.235 33.5625 463.961 33.9609V35.1094H476.711V33.9609C474.672 33.5859 474.367 33.1641 474.367 31.5234V16.7812C475.071 15.4688 476.547 14.5781 478.469 14.5781C481.117 14.5781 482.664 16.1484 482.664 19.2891V31.5234C482.664 33.1641 482.313 33.6094 480.321 33.9609V35.1094H493.071V33.9609C490.75 33.5625 490.352 33.0703 490.352 31.3828V18.8438C490.352 13.7812 487.141 11.3672 482.383 11.3672C478.399 11.3672 475.492 13.1953 474.321 15.8672V11.5078ZM499.19 8.4375C501.369 8.4375 503.127 6.84375 503.127 4.73438C503.127 2.57812 501.369 1.00781 499.19 1.00781C497.01 1.00781 495.252 2.57812 495.252 4.73438C495.252 6.84375 497.01 8.4375 499.19 8.4375ZM503.479 11.5078L493.073 12.7734V13.8516L494.268 14.2266C495.58 14.6719 495.768 15 495.768 16.5234V31.3828C495.768 33.0703 495.346 33.5625 493.073 33.9609V35.1094H506.174V33.9609C503.901 33.5625 503.479 33.0703 503.479 31.3828V11.5078ZM256.376 83.2266C256.376 75.6797 252.134 71.3672 246.884 71.3672C243.298 71.3672 240.415 73.0781 239.267 75.8203L239.337 60.0234L228.908 61.2656V62.3438L230.126 62.7422C231.439 63.1875 231.603 63.5156 231.603 65.0391V95.1094H235.915L238.681 92.0859C239.665 94.1016 242.22 95.5547 245.431 95.5547C251.408 95.5547 256.376 91.125 256.376 83.2266ZM248.431 83.9531C248.431 89.9297 246.204 93.3047 242.923 93.3047C241.259 93.3047 239.853 92.3672 239.337 91.2188V76.8047C240.04 75.4453 241.376 74.5781 243.158 74.5781C246.251 74.5781 248.431 77.9531 248.431 83.9531ZM263.339 68.4375C265.519 68.4375 267.277 66.8438 267.277 64.7344C267.277 62.5781 265.519 61.0078 263.339 61.0078C261.159 61.0078 259.402 62.5781 259.402 64.7344C259.402 66.8438 261.159 68.4375 263.339 68.4375ZM267.628 71.5078L257.222 72.7734V73.8516L258.417 74.2266C259.73 74.6719 259.917 75 259.917 76.5234V91.3828C259.917 93.0703 259.495 93.5625 257.222 93.9609V95.1094H270.323V93.9609C268.05 93.5625 267.628 93.0703 267.628 91.3828V71.5078ZM280.802 60L270.396 61.2656V62.3438L271.591 62.7422C272.903 63.1875 273.091 63.5156 273.091 65.0391V91.3828C273.091 93.0703 272.669 93.5625 270.396 93.9609V95.1094H283.497V93.9609C281.224 93.5625 280.802 93.0703 280.802 91.3828V60ZM290.952 95.5781C294.796 95.5781 297.819 93.9844 298.733 91.5938C299.179 94.1484 301.687 95.4609 304.499 95.4609C306.538 95.4609 308.319 94.9219 309.28 94.2422V93.1641C309.046 93.2344 308.718 93.2812 308.366 93.2812C307.077 93.2812 306.116 92.4609 306.116 90.5156V79.2891C306.116 73.8047 302.155 71.3672 295.546 71.3672C289.077 71.3672 285.069 73.9922 285.069 77.2266C285.069 79.1016 286.593 80.4844 288.515 80.4844C290.46 80.4844 291.983 79.0312 291.983 77.1562C291.983 75.5391 290.858 74.25 289.382 73.9453C290.413 73.4766 291.608 73.2188 292.897 73.2188C296.507 73.2188 298.593 74.8828 298.593 79.1719V81.6328L293.999 82.5703C286.827 84 284.132 86.3906 284.132 89.9062C284.132 93.3047 286.921 95.5781 290.952 95.5781ZM291.702 88.7109C291.702 86.0156 293.062 84.2344 296.952 83.3203L298.593 82.9453V90.6797C297.96 91.9453 296.718 92.6484 295.101 92.6484C293.179 92.6484 291.702 91.2656 291.702 88.7109ZM319.149 71.5078L308.79 72.7734V73.8516L309.985 74.2266C311.298 74.6719 311.485 75 311.485 76.5234V91.3828C311.485 93.0703 311.063 93.5625 308.79 93.9609V95.1094H321.54V93.9609C319.501 93.5859 319.196 93.1641 319.196 91.5234V76.7812C319.899 75.4688 321.376 74.5781 323.298 74.5781C325.946 74.5781 327.493 76.1484 327.493 79.2891V91.5234C327.493 93.1641 327.142 93.6094 325.149 93.9609V95.1094H337.899V93.9609C335.579 93.5625 335.181 93.0703 335.181 91.3828V78.8438C335.181 73.7812 331.97 71.3672 327.212 71.3672C323.228 71.3672 320.321 73.1953 319.149 75.8672V71.5078ZM373.622 83.2266C373.622 75.6797 369.38 71.3672 364.13 71.3672C360.544 71.3672 357.661 73.0781 356.513 75.8203L356.583 60.0234L346.153 61.2656V62.3438L347.372 62.7422C348.684 63.1875 348.848 63.5156 348.848 65.0391V95.1094H353.161L355.927 92.0859C356.911 94.1016 359.466 95.5547 362.677 95.5547C368.653 95.5547 373.622 91.125 373.622 83.2266ZM365.677 83.9531C365.677 89.9297 363.45 93.3047 360.169 93.3047C358.505 93.3047 357.098 92.3672 356.583 91.2188V76.8047C357.286 75.4453 358.622 74.5781 360.403 74.5781C363.497 74.5781 365.677 77.9531 365.677 83.9531ZM380.585 68.4375C382.764 68.4375 384.522 66.8438 384.522 64.7344C384.522 62.5781 382.764 61.0078 380.585 61.0078C378.405 61.0078 376.647 62.5781 376.647 64.7344C376.647 66.8438 378.405 68.4375 380.585 68.4375ZM384.874 71.5078L374.467 72.7734V73.8516L375.663 74.2266C376.975 74.6719 377.163 75 377.163 76.5234V91.3828C377.163 93.0703 376.741 93.5625 374.467 93.9609V95.1094H387.569V93.9609C385.296 93.5625 384.874 93.0703 384.874 91.3828V71.5078ZM398.001 71.5078L387.641 72.7734V73.8516L388.837 74.2266C390.126 74.6719 390.337 75 390.337 76.5234V91.4297C390.337 93.0703 389.962 93.5859 387.641 93.9609V95.1094H401.048V93.9609C398.469 93.5391 398.048 93.0469 398.048 91.1953V78.9141C399.079 77.9531 401.446 77.3438 403.766 77.3438C405.102 77.3438 406.462 77.5547 407.141 77.8125C407.423 77.25 407.68 76.2656 407.68 75.2578C407.68 73.1484 406.673 71.4609 404.563 71.4609C402.196 71.4609 400.227 73.4531 397.977 78.1172L398.001 71.5078ZM407.612 79.0781C407.612 82.8984 410.87 85.2891 415.182 85.9453C410.401 86.4844 407.682 88.6172 407.659 91.6406C407.659 94.7344 410.846 96.6797 415.557 96.6797C409.323 96.9609 406.721 98.6953 406.721 101.18C406.745 104.391 411.338 106.547 418.838 106.547C426.01 106.547 431.635 103.031 431.635 97.8516C431.635 93.3047 428.284 90.6328 421.604 90.6328H417.667C414.995 90.6328 413.659 89.8828 413.659 88.5469C413.659 87.3516 414.643 86.5781 416.237 86.25C417.198 86.3672 418.065 86.4375 418.979 86.4375C425.237 86.4375 430.182 83.6719 430.182 78.9844C430.182 76.4531 428.565 74.3672 426.034 73.4531L432.526 73.9453V71.7891L424.581 72.3281C423.034 71.7656 421.018 71.3672 418.815 71.3672C412.393 71.3672 407.612 74.4141 407.612 79.0781ZM415.159 78.7969C415.159 75.1172 416.401 72.7969 418.862 72.7969C421.276 72.7969 422.682 75.2578 422.682 79.0078C422.682 82.7109 421.37 85.0078 418.979 85.0078C416.612 85.0078 415.159 82.5938 415.159 78.7969ZM413.143 100.711C413.143 98.5781 414.479 97.1719 416.893 96.9141H420.432C423.854 96.9141 425.378 98.2734 425.378 100.523C425.378 103.242 422.776 105 418.956 105C415.346 105 413.143 103.219 413.143 100.711ZM439.137 95.5781C442.981 95.5781 446.004 93.9844 446.918 91.5938C447.364 94.1484 449.872 95.4609 452.684 95.4609C454.723 95.4609 456.504 94.9219 457.465 94.2422V93.1641C457.231 93.2344 456.903 93.2812 456.551 93.2812C455.262 93.2812 454.301 92.4609 454.301 90.5156V79.2891C454.301 73.8047 450.34 71.3672 443.731 71.3672C437.262 71.3672 433.254 73.9922 433.254 77.2266C433.254 79.1016 434.778 80.4844 436.7 80.4844C438.645 80.4844 440.168 79.0312 440.168 77.1562C440.168 75.5391 439.043 74.25 437.567 73.9453C438.598 73.4766 439.793 73.2188 441.082 73.2188C444.692 73.2188 446.778 74.8828 446.778 79.1719V81.6328L442.184 82.5703C435.012 84 432.317 86.3906 432.317 89.9062C432.317 93.3047 435.106 95.5781 439.137 95.5781ZM439.887 88.7109C439.887 86.0156 441.247 84.2344 445.137 83.3203L446.778 82.9453V90.6797C446.145 91.9453 444.903 92.6484 443.286 92.6484C441.364 92.6484 439.887 91.2656 439.887 88.7109ZM3.79688 136.828L11.9531 156.258C10.1953 159.328 7.07812 163.477 4.80469 165.797V165.891H10.4531L13.9922 155.977L17.1094 148.547L21.6328 137.508C23.0625 134.016 23.7188 133.359 25.6406 132.984V131.812H17.7188V132.984C20.3672 133.359 20.6719 134.109 19.5469 137.32L15.9375 147.727L12.2578 137.227C11.1797 134.086 11.4375 133.336 14.1328 132.984V131.812H0.1875V132.984C2.01562 133.359 2.60156 133.945 3.79688 136.828ZM31.2441 155.578C35.0878 155.578 38.1112 153.984 39.0253 151.594C39.4706 154.148 41.9784 155.461 44.7909 155.461C46.83 155.461 48.6112 154.922 49.5722 154.242V153.164C49.3378 153.234 49.0097 153.281 48.6581 153.281C47.3691 153.281 46.4081 152.461 46.4081 150.516V139.289C46.4081 133.805 42.4472 131.367 35.8378 131.367C29.3691 131.367 25.3612 133.992 25.3612 137.227C25.3612 139.102 26.8847 140.484 28.8066 140.484C30.7519 140.484 32.2753 139.031 32.2753 137.156C32.2753 135.539 31.1503 134.25 29.6737 133.945C30.705 133.477 31.9003 133.219 33.1894 133.219C36.7987 133.219 38.8847 134.883 38.8847 139.172V141.633L34.2909 142.57C27.1191 144 24.4237 146.391 24.4237 149.906C24.4237 153.305 27.2128 155.578 31.2441 155.578ZM31.9941 148.711C31.9941 146.016 33.3534 144.234 37.2441 143.32L38.8847 142.945V150.68C38.2519 151.945 37.0097 152.648 35.3925 152.648C33.4706 152.648 31.9941 151.266 31.9941 148.711ZM59.4412 131.508L49.0819 132.773V133.852L50.2772 134.227C51.5662 134.672 51.7772 135 51.7772 136.523V151.43C51.7772 153.07 51.4022 153.586 49.0819 153.961V155.109H62.4881V153.961C59.91 153.539 59.4881 153.047 59.4881 151.195V138.914C60.5194 137.953 62.8866 137.344 65.2069 137.344C66.5428 137.344 67.9022 137.555 68.5819 137.812C68.8631 137.25 69.1209 136.266 69.1209 135.258C69.1209 133.148 68.1131 131.461 66.0037 131.461C63.6366 131.461 61.6678 133.453 59.4178 138.117L59.4412 131.508ZM76.2009 155.578C80.0447 155.578 83.0681 153.984 83.9822 151.594C84.4275 154.148 86.9353 155.461 89.7478 155.461C91.7869 155.461 93.5681 154.922 94.5291 154.242V153.164C94.2947 153.234 93.9666 153.281 93.615 153.281C92.3259 153.281 91.365 152.461 91.365 150.516V139.289C91.365 133.805 87.4041 131.367 80.7947 131.367C74.3259 131.367 70.3181 133.992 70.3181 137.227C70.3181 139.102 71.8416 140.484 73.7634 140.484C75.7087 140.484 77.2322 139.031 77.2322 137.156C77.2322 135.539 76.1072 134.25 74.6306 133.945C75.6619 133.477 76.8572 133.219 78.1462 133.219C81.7556 133.219 83.8416 134.883 83.8416 139.172V141.633L79.2478 142.57C72.0759 144 69.3806 146.391 69.3806 149.906C69.3806 153.305 72.1697 155.578 76.2009 155.578ZM76.9509 148.711C76.9509 146.016 78.3103 144.234 82.2009 143.32L83.8416 142.945V150.68C83.2087 151.945 81.9666 152.648 80.3494 152.648C78.4275 152.648 76.9509 151.266 76.9509 148.711ZM96.4997 148.289C96.4997 153.492 99.5466 155.578 103.507 155.578C106.461 155.578 109.086 154.242 110.07 152.836V151.664C109.461 152.227 108.476 152.602 107.422 152.602C105.476 152.602 104.164 151.43 104.164 148.312V133.617L109.789 133.969V131.812L104.164 132.164V126.07H103.273L93.8512 132.961V133.969H96.4997V148.289ZM115.58 128.438C117.759 128.438 119.517 126.844 119.517 124.734C119.517 122.578 117.759 121.008 115.58 121.008C113.4 121.008 111.642 122.578 111.642 124.734C111.642 126.844 113.4 128.438 115.58 128.438ZM119.869 131.508L109.463 132.773V133.852L110.658 134.227C111.97 134.672 112.158 135 112.158 136.523V151.383C112.158 153.07 111.736 153.562 109.463 153.961V155.109H122.564V153.961C120.291 153.562 119.869 153.07 119.869 151.383V131.508ZM132.996 131.508L122.636 132.773V133.852L123.832 134.227C125.144 134.672 125.332 135 125.332 136.523V151.383C125.332 153.07 124.91 153.562 122.636 153.961V155.109H135.386V153.961C133.347 153.586 133.043 153.164 133.043 151.523V136.781C133.746 135.469 135.222 134.578 137.144 134.578C139.793 134.578 141.339 136.148 141.339 139.289V151.523C141.339 153.164 140.988 153.609 138.996 153.961V155.109H151.746V153.961C149.425 153.562 149.027 153.07 149.027 151.383V138.844C149.027 133.781 145.816 131.367 141.058 131.367C137.074 131.367 134.168 133.195 132.996 135.867V131.508ZM152.591 139.078C152.591 142.898 155.849 145.289 160.162 145.945C155.38 146.484 152.662 148.617 152.638 151.641C152.638 154.734 155.826 156.68 160.537 156.68C154.302 156.961 151.701 158.695 151.701 161.18C151.724 164.391 156.318 166.547 163.818 166.547C170.99 166.547 176.615 163.031 176.615 157.852C176.615 153.305 173.263 150.633 166.583 150.633H162.646C159.974 150.633 158.638 149.883 158.638 148.547C158.638 147.352 159.622 146.578 161.216 146.25C162.177 146.367 163.044 146.438 163.958 146.438C170.216 146.438 175.162 143.672 175.162 138.984C175.162 136.453 173.544 134.367 171.013 133.453L177.505 133.945V131.789L169.56 132.328C168.013 131.766 165.997 131.367 163.794 131.367C157.372 131.367 152.591 134.414 152.591 139.078ZM160.138 138.797C160.138 135.117 161.38 132.797 163.841 132.797C166.255 132.797 167.662 135.258 167.662 139.008C167.662 142.711 166.349 145.008 163.958 145.008C161.591 145.008 160.138 142.594 160.138 138.797ZM158.122 160.711C158.122 158.578 159.458 157.172 161.872 156.914H165.412C168.833 156.914 170.357 158.273 170.357 160.523C170.357 163.242 167.755 165 163.935 165C160.326 165 158.122 163.219 158.122 160.711Z" fill="black"/>
<path d="M29.7891 88.875L19.9688 61.1953H14.4844L4.85156 88.0312C3.21094 92.6719 2.4375 93.5156 0 93.9609V95.1094H9.39844V93.9609C6.1875 93.4688 5.71875 92.4375 7.10156 88.125L8.625 83.5078H19.125L20.8594 88.6641C22.125 92.5078 21.5391 93.5156 18.5625 93.9609V95.1094H34.3125V93.9609C31.9453 93.5156 31.125 92.625 29.7891 88.875ZM9.14062 81.8672L13.8047 67.5703L18.5859 81.8672H9.14062ZM43.455 71.5078L33.0956 72.7734V73.8516L34.2909 74.2266C35.58 74.6719 35.7909 75 35.7909 76.5234V91.4297C35.7909 93.0703 35.4159 93.5859 33.0956 93.9609V95.1094H46.5019V93.9609C43.9237 93.5391 43.5019 93.0469 43.5019 91.1953V78.9141C44.5331 77.9531 46.9003 77.3438 49.2206 77.3438C50.5566 77.3438 51.9159 77.5547 52.5956 77.8125C52.8769 77.25 53.1347 76.2656 53.1347 75.2578C53.1347 73.1484 52.1269 71.4609 50.0175 71.4609C47.6503 71.4609 45.6816 73.4531 43.4316 78.1172L43.455 71.5078ZM65.2303 95.5781C69.4491 95.5781 72.9647 93.9609 74.6991 91.4766V90.3281C73.5272 91.4766 71.4881 92.25 69.2147 92.25C64.5506 92.25 60.7772 88.5703 60.7772 82.125C60.7772 76.7578 63.5897 73.3359 67.8319 73.3359C69.0975 73.3359 70.2225 73.6406 71.1131 74.2031C71.0662 74.1797 71.0428 74.1797 70.9959 74.1797C69.1912 74.1797 67.7147 75.6797 67.7147 77.5781C67.7147 79.4766 69.2381 80.9766 71.16 80.9766C73.035 80.9766 74.6053 79.5 74.6053 77.4375C74.6053 74.0625 71.3944 71.3672 65.7459 71.3672C58.2928 71.3672 52.8084 76.3359 52.8084 83.5078C52.8084 90.9375 58.3162 95.5781 65.2303 95.5781ZM85.4587 60L75.0525 61.2656V62.3438L76.2478 62.7422C77.5603 63.1875 77.7478 63.5156 77.7478 65.0391V91.3828C77.7478 93.0703 77.3259 93.5625 75.0525 93.9609V95.1094H87.8025V93.9609C85.7634 93.5859 85.4587 93.1641 85.4587 91.5234V76.7812C86.1619 75.4688 87.6384 74.5781 89.5603 74.5781C92.2087 74.5781 93.7556 76.1484 93.7556 79.2891V91.5234C93.7556 93.1641 93.4041 93.6094 91.4119 93.9609V95.1094H104.162V93.9609C101.842 93.5625 101.443 93.0703 101.443 91.3828V78.8438C101.443 73.7812 98.2322 71.3672 93.4744 71.3672C89.5134 71.3672 86.6306 73.1719 85.4119 75.8203L85.4587 60ZM114.523 71.5078L104.164 72.7734V73.8516L105.359 74.2266C106.672 74.6719 106.859 75 106.859 76.5234V91.3828C106.859 93.0703 106.437 93.5625 104.164 93.9609V95.1094H116.914V93.9609C114.875 93.6094 114.57 93.1641 114.57 91.5234V76.7812C115.273 75.4922 116.609 74.5781 118.507 74.5781C120.968 74.5781 122.375 76.125 122.375 79.2422V91.5234C122.375 93.1641 122.093 93.6094 120.054 93.9609V95.1094H132.429V93.9609C130.39 93.6094 130.086 93.1641 130.086 91.5234V78.4453C130.086 77.7891 130.039 77.2266 129.922 76.6641C130.648 75.3984 132.054 74.5781 133.953 74.5781C136.437 74.5781 137.89 76.125 137.89 79.2422V91.5234C137.89 93.1641 137.586 93.5859 135.547 93.9609V95.1094H148.297V93.9609C146 93.5625 145.601 93.0703 145.601 91.3828V78.7969C145.601 73.8516 142.531 71.3672 137.867 71.3672C133.953 71.3672 130.929 73.2422 129.781 75.8906C128.937 72.9609 126.172 71.3672 122.492 71.3672C118.507 71.3672 115.648 73.2422 114.523 75.8672V71.5078ZM161.939 95.5781C169.486 95.5781 175.134 90.5625 175.134 83.3672C175.134 76.0312 169.533 71.3672 162.033 71.3672C154.509 71.3672 148.861 76.3594 148.861 83.5547C148.861 90.9141 154.462 95.5781 161.939 95.5781ZM162.103 94.0312C158.962 94.0312 157.017 90 157.017 83.2969C157.017 76.8281 158.705 72.9141 161.892 72.9141C165.009 72.9141 166.955 76.9219 166.955 83.625C166.955 90.0938 165.267 94.0312 162.103 94.0312ZM177.316 76.8281L184.347 95.1562H188.566L195.269 77.7891C196.722 74.0156 197.378 73.3594 199.253 72.9844V71.8125H191.425V72.9844C194.074 73.3594 194.378 74.1094 193.277 77.6016L189.574 88.7109L185.871 77.5547C184.792 74.1094 185.097 73.3359 187.816 72.9844V71.8125H173.73V72.9844C175.582 73.3828 176.214 74.0391 177.316 76.8281ZM197.427 83.5078C197.427 90.9609 202.935 95.5781 209.919 95.5781C214.279 95.5781 217.841 94.0078 219.552 91.4297L219.529 90.2812C218.357 91.4766 216.388 92.3438 214.091 92.3438C209.357 92.3438 205.865 88.8984 205.255 82.8047H219.857C219.904 82.4062 219.974 81.7969 219.974 81.1875C219.974 75.375 216.083 71.3672 209.591 71.3672C202.279 71.3672 197.427 76.3828 197.427 83.5078ZM205.138 80.7891C205.138 75.75 206.755 72.9141 209.591 72.9141C212.076 72.9141 213.201 75.5859 213.201 79.7578C213.201 80.4375 213.201 80.9297 213.177 81.375L205.162 81.4688C205.138 81.2344 205.138 81.0234 205.138 80.7891Z" fill="#FD665E"/>
</svg>
